<svg width="403" height="205" viewBox="0 0 403 205" fill="none" xmlns="http://www.w3.org/2000/svg">
<g opacity="0.2" clip-path="url(#clip0_112_1748)">
<path d="M401.25 1.37134H-79.4863V7.77399H401.25V1.37134Z" stroke="#F1F6FF" stroke-width="1.04434" stroke-miterlimit="10" stroke-linecap="round" stroke-linejoin="round"/>
<path d="M68.7557 204.563H-79.4863V210.965H68.7557V204.563Z" stroke="#F1F6FF" stroke-width="1.04434" stroke-miterlimit="10" stroke-linecap="round" stroke-linejoin="round"/>
<path d="M68.6195 7.83252H62.3535V29.7636H68.6195V7.83252Z" stroke="#F1F6FF" stroke-width="1.04434" stroke-miterlimit="10" stroke-linecap="round" stroke-linejoin="round"/>
<path d="M236.233 7.83252H229.445V29.7636H236.233V7.83252Z" stroke="#F1F6FF" stroke-width="1.04434" stroke-miterlimit="10" stroke-linecap="round" stroke-linejoin="round"/>
<path d="M242.5 7.83252H236.234V210.956H242.5V7.83252Z" stroke="#F1F6FF" stroke-width="1.04434" stroke-miterlimit="10" stroke-linecap="round" stroke-linejoin="round"/>
<path d="M401.239 7.83252H394.973V210.956H401.239V7.83252Z" stroke="#F1F6FF" stroke-width="1.04434" stroke-miterlimit="10" stroke-linecap="round" stroke-linejoin="round"/>
<path d="M62.3529 7.83252H56.0869V210.956H62.3529V7.83252Z" stroke="#F1F6FF" stroke-width="1.04434" stroke-miterlimit="10" stroke-linecap="round" stroke-linejoin="round"/>
<path d="M401.049 204.563H229.601V210.965H401.049V204.563Z" stroke="#F1F6FF" stroke-width="1.04434" stroke-miterlimit="10" stroke-linecap="round" stroke-linejoin="round"/>
<path d="M236.233 29.7634H229.445V210.956H236.233V29.7634Z" stroke="#F1F6FF" stroke-width="1.04434" stroke-miterlimit="10" stroke-linecap="round" stroke-linejoin="round"/>
<path d="M68.6195 29.7634H62.3535V210.956H68.6195V29.7634Z" stroke="#F1F6FF" stroke-width="1.04434" stroke-miterlimit="10" stroke-linecap="round" stroke-linejoin="round"/>
<path d="M229.445 210.955L229.445 204.689L68.6177 204.689L68.6177 210.955L229.445 210.955Z" stroke="#F1F6FF" stroke-width="1.04434" stroke-miterlimit="10" stroke-linecap="round" stroke-linejoin="round"/>
<path d="M152.165 29.7634H145.899L145.899 202.601H152.165L152.165 29.7634Z" stroke="#F1F6FF" stroke-width="1.04434" stroke-miterlimit="10" stroke-linecap="round" stroke-linejoin="round"/>
<path d="M68.7557 207.427V210.956H-79.4863V207.427V8.40497V4.8767V1.23462H401.25V4.8767V8.40497V207.427V210.956H229.601V207.427V29.9881H149.179H68.7557V207.427Z" stroke="#F1F6FF" stroke-width="1.43596" stroke-miterlimit="10" stroke-linecap="round" stroke-linejoin="round"/>
<path d="M112.937 76.0625L109.062 79.9386" stroke="#F1F6FF" stroke-width="0.783251" stroke-miterlimit="10" stroke-linecap="round" stroke-linejoin="round"/>
<path d="M103.974 78.4175L107.849 74.542" stroke="#F1F6FF" stroke-width="0.783251" stroke-miterlimit="10" stroke-linecap="round" stroke-linejoin="round"/>
<path d="M103.605 81.7599L113.307 72.0591" stroke="#F1F6FF" stroke-width="0.783251" stroke-miterlimit="10" stroke-linecap="round" stroke-linejoin="round"/>
<path d="M196.484 76.0625L192.608 79.9386" stroke="#F1F6FF" stroke-width="0.783251" stroke-miterlimit="10" stroke-linecap="round" stroke-linejoin="round"/>
<path d="M187.521 78.4175L191.397 74.542" stroke="#F1F6FF" stroke-width="0.783251" stroke-miterlimit="10" stroke-linecap="round" stroke-linejoin="round"/>
<path d="M187.151 81.7599L196.853 72.0591" stroke="#F1F6FF" stroke-width="0.783251" stroke-miterlimit="10" stroke-linecap="round" stroke-linejoin="round"/>
<path d="M21.1099 76.0625L17.2344 79.9386" stroke="#F1F6FF" stroke-width="0.783251" stroke-miterlimit="10" stroke-linecap="round" stroke-linejoin="round"/>
<path d="M12.1465 78.4175L16.022 74.542" stroke="#F1F6FF" stroke-width="0.783251" stroke-miterlimit="10" stroke-linecap="round" stroke-linejoin="round"/>
<path d="M11.7773 81.7599L21.4787 72.0591" stroke="#F1F6FF" stroke-width="0.783251" stroke-miterlimit="10" stroke-linecap="round" stroke-linejoin="round"/>
<path d="M37.7284 32.4016H-4.47266V122.079H37.7284V32.4016Z" stroke="#F1F6FF" stroke-width="1.17488" stroke-miterlimit="10" stroke-linecap="round" stroke-linejoin="round"/>
<path d="M40.3671 29.7634H-7.10938V124.716H40.3671V29.7634Z" stroke="#F1F6FF" stroke-width="1.17488" stroke-miterlimit="10" stroke-linecap="round" stroke-linejoin="round"/>
<path d="M299.961 76.0625L296.086 79.9386" stroke="#F1F6FF" stroke-width="0.783251" stroke-miterlimit="10" stroke-linecap="round" stroke-linejoin="round"/>
<path d="M291 78.4175L294.876 74.542" stroke="#F1F6FF" stroke-width="0.783251" stroke-miterlimit="10" stroke-linecap="round" stroke-linejoin="round"/>
<path d="M290.631 82.0905L300.332 72.3896" stroke="#F1F6FF" stroke-width="0.783251" stroke-miterlimit="10" stroke-linecap="round" stroke-linejoin="round"/>
<path d="M366.695 32.4016H324.494V122.079H366.695V32.4016Z" stroke="#F1F6FF" stroke-width="1.17488" stroke-miterlimit="10" stroke-linecap="round" stroke-linejoin="round"/>
<path d="M369.332 29.7634H321.855V124.716H369.332V29.7634Z" stroke="#F1F6FF" stroke-width="1.17488" stroke-miterlimit="10" stroke-linecap="round" stroke-linejoin="round"/>
<path d="M316.58 32.4016H274.379V122.079H316.58V32.4016Z" stroke="#F1F6FF" stroke-width="1.17488" stroke-miterlimit="10" stroke-linecap="round" stroke-linejoin="round"/>
<path d="M319.219 29.7634H271.742V124.716H319.219V29.7634Z" stroke="#F1F6FF" stroke-width="1.17488" stroke-miterlimit="10" stroke-linecap="round" stroke-linejoin="round"/>
<path d="M350.075 76.0627L346.199 79.9388" stroke="#F1F6FF" stroke-width="0.783251" stroke-miterlimit="10" stroke-linecap="round" stroke-linejoin="round"/>
<path d="M341.111 78.4175L344.987 74.542" stroke="#F1F6FF" stroke-width="0.783251" stroke-miterlimit="10" stroke-linecap="round" stroke-linejoin="round"/>
<path d="M340.742 82.0905L350.444 72.3896" stroke="#F1F6FF" stroke-width="0.783251" stroke-miterlimit="10" stroke-linecap="round" stroke-linejoin="round"/>
<path d="M366.693 32.4016H324.492V122.079H366.693V32.4016Z" stroke="#F1F6FF" stroke-width="1.17488" stroke-miterlimit="10" stroke-linecap="round" stroke-linejoin="round"/>
<path d="M369.332 29.7634H321.855V124.716H369.332V29.7634Z" stroke="#F1F6FF" stroke-width="1.17488" stroke-miterlimit="10" stroke-linecap="round" stroke-linejoin="round"/>
</g>
<defs>
<clipPath id="clip0_112_1748">
<rect width="483.005" height="212" fill="white" transform="translate(-80.7207)"/>
</clipPath>
</defs>
</svg>
