<svg width="552" height="129" viewBox="0 0 552 129" fill="none" xmlns="http://www.w3.org/2000/svg">
<path d="M59.5037 90.498L58.6674 90.4036C59.2714 85.7796 59.8754 73.8421 51.9302 63.3202C47.4233 57.3279 41.8013 54.0722 37.8984 52.4208L38.2237 51.6187C42.2195 53.3173 47.9809 56.6673 52.6272 62.8012C60.7582 73.559 60.1542 85.7324 59.5037 90.498Z" fill="white"/>
<path d="M4.30595 129H11.2754L29.6747 90.4982H59.5039V83.751H22.473L4.63119 120.082L0.263672 129H4.30595Z" fill="white"/>
<path d="M126.829 129L122.462 120.082L63.5469 0L38.2246 51.5717C40.4548 52.5154 43.1961 53.9781 46.0304 56.1485L63.5005 19.5812L115.725 129H123.252H126.829Z" fill="white"/>
<path d="M214.085 75.2847C213.538 75.2847 212.991 75.2847 212.443 75.2847C211.896 75.2847 211.458 75.2847 210.91 75.1736V88.4043H204.779V54.6047H214.414C216.056 54.6047 217.48 54.7159 218.684 54.8271C219.888 54.9383 220.983 55.1606 221.859 55.4942C224.158 56.1613 225.91 57.3843 227.114 58.8297C228.318 60.3862 228.975 62.3875 228.975 64.7223C228.975 66.3901 228.647 67.8355 227.99 69.1697C227.333 70.5039 226.348 71.6157 225.034 72.5051C223.72 73.3946 222.187 74.1729 220.326 74.6176C218.684 75.0624 216.494 75.2847 214.085 75.2847ZM211.02 69.948C211.348 69.948 211.786 70.0591 212.334 70.0591C212.881 70.0591 213.429 70.0591 213.976 70.0591C215.618 70.0591 217.042 69.948 218.136 69.6144C219.231 69.3921 220.107 68.9473 220.874 68.5026C221.53 68.0579 222.078 67.3908 222.297 66.7237C222.625 66.0566 222.735 65.2783 222.735 64.5C222.735 63.4994 222.516 62.6099 222.078 61.9428C221.64 61.1645 220.874 60.6086 219.779 60.275C219.231 60.0527 218.465 59.9415 217.589 59.8303C216.713 59.7191 215.728 59.7191 214.414 59.7191H211.02V69.948Z" fill="white"/>
<path d="M249.122 88.4043H242.991V59.8303H232.262V54.6047H259.852V59.8303H249.122V88.4043Z" fill="white"/>
<path d="M270.69 83.1787H287.112V88.4043H264.559V54.6047H286.127V59.8303H270.69V68.6137H283.937V73.8394H270.69V83.1787Z" fill="white"/>
<path d="M333.531 67.7243C334.955 67.6131 336.269 67.5019 337.582 67.5019C340.1 67.5019 342.29 67.7243 344.151 68.169C347.108 68.8361 349.297 69.948 350.721 71.6157C352.144 73.2834 352.91 75.1735 352.91 77.6196C352.91 79.6209 352.363 81.511 351.268 83.1787C350.173 84.8464 348.531 86.0694 346.232 86.9589C345.027 87.4036 343.604 87.8484 341.962 88.0707C340.319 88.2931 338.349 88.4043 336.05 88.4043H327.51V54.6047H333.641L333.531 67.7243ZM333.531 83.1787H336.378C337.473 83.1787 338.458 83.1787 339.334 83.0675C340.21 82.9563 341.086 82.8452 341.743 82.734C343.166 82.4004 344.37 81.8445 345.246 80.955C346.122 80.0656 346.56 79.0649 346.56 77.6196C346.56 76.5077 346.232 75.5071 345.575 74.84C344.918 74.0617 343.823 73.5058 342.29 73.1722C341.633 72.9499 340.867 72.8387 339.991 72.8387C339.115 72.7275 338.239 72.7275 337.254 72.7275C335.94 72.7275 334.626 72.8387 333.422 72.9499L333.531 83.1787Z" fill="white"/>
<path d="M395.066 54.6047V88.4043H391.015V58.4961H373.936V88.4043H369.885V54.6047H395.066Z" fill="white"/>
<path d="M407.654 88.4043H403.604V54.6047H412.8C414.224 54.6047 415.428 54.7159 416.632 54.8271C417.837 55.0494 418.822 55.2718 419.807 55.6054C421.778 56.3837 423.311 57.3843 424.296 58.8297C425.281 60.275 425.829 62.054 425.829 64.1664C425.829 65.8342 425.5 67.3907 424.844 68.7249C424.187 70.0591 423.201 71.1709 421.887 71.9492C420.574 72.8387 419.041 73.5058 417.289 73.9505C415.537 74.3953 413.348 74.6176 411.048 74.6176C409.954 74.6176 408.749 74.6176 407.545 74.5065L407.654 88.4043ZM407.654 70.7262C408.202 70.8374 408.749 70.8374 409.406 70.8374C409.954 70.8374 410.611 70.8374 411.048 70.8374C412.91 70.8374 414.552 70.7262 415.975 70.3927C417.289 70.0591 418.384 69.6144 419.26 69.0585C420.136 68.5026 420.683 67.7243 421.121 66.946C421.559 66.1677 421.668 65.1671 421.668 64.0553C421.668 62.7211 421.34 61.6092 420.793 60.8309C420.136 59.9415 419.26 59.3856 418.165 58.9409C417.399 58.7185 416.632 58.4961 415.756 58.3849C414.88 58.2738 413.786 58.1626 412.472 58.1626H407.764L407.654 70.7262Z" fill="white"/>
<path d="M462.398 71.5045C462.398 74.0617 462.07 76.3965 461.303 78.509C460.537 80.6215 459.552 82.5116 458.238 84.0682C456.924 85.6247 455.282 86.8477 453.311 87.7372C451.45 88.6266 449.26 89.0714 446.961 89.0714C444.552 89.0714 442.363 88.6266 440.392 87.7372C438.421 86.8477 436.888 85.6247 435.465 84.0682C434.151 82.5116 433.056 80.7327 432.4 78.509C431.633 76.3965 431.305 74.0617 431.305 71.5045C431.305 68.9473 431.633 66.6124 432.4 64.3888C433.166 62.1651 434.151 60.3862 435.465 58.8296C436.779 57.2731 438.421 56.0501 440.392 55.1606C442.363 54.2712 444.443 53.8264 446.852 53.8264C449.26 53.8264 451.45 54.2712 453.311 55.1606C455.282 56.0501 456.815 57.2731 458.238 58.8296C459.552 60.3862 460.647 62.2763 461.303 64.3888C461.96 66.5013 462.398 68.9473 462.398 71.5045ZM458.347 71.5045C458.347 69.2808 458.019 67.2795 457.472 65.5006C456.924 63.7217 456.048 62.2763 455.063 61.1645C454.077 60.0527 452.873 59.1632 451.45 58.4961C450.027 57.9402 448.494 57.6066 446.961 57.6066C445.428 57.6066 443.895 57.9402 442.472 58.4961C441.049 59.052 439.844 59.9415 438.859 61.1645C437.874 62.3875 436.998 63.7217 436.45 65.5006C435.903 67.2795 435.575 69.2808 435.575 71.5045C435.575 73.7281 435.903 75.7294 436.45 77.5083C436.998 79.1761 437.874 80.6215 438.859 81.8445C439.844 82.9563 441.049 83.8458 442.472 84.5129C443.895 85.0688 445.428 85.4023 447.07 85.4023C448.713 85.4023 450.136 85.0688 451.559 84.5129C452.983 83.957 454.187 83.0675 455.172 81.8445C456.158 80.6215 457.034 79.2873 457.581 77.5083C458.128 75.7294 458.347 73.7281 458.347 71.5045Z" fill="white"/>
<path d="M473.893 84.624H490.972V88.293H469.842V54.4934H490.096V58.1624H473.893V69.0584H488.235V72.7274H473.893V84.624Z" fill="white"/>
<path d="M497.98 88.4043V54.6047H502.031V71.2822L517.359 54.6047H521.41L505.863 71.3933L522.286 88.4043H518.235L502.031 71.8381V88.4043H497.98Z" fill="white"/>
<path d="M540.679 88.4043H536.628V58.2738H525.461V54.6047H551.737V58.2738H540.57L540.679 88.4043Z" fill="white"/>
<path d="M275.945 47.4891L278.354 39.9287H282.952L279.449 47.4891H275.945Z" fill="white"/>
<path d="M309.995 54.6047H304.412L291.164 88.4043H297.624L299.594 83.1787L305.069 68.6137C305.726 66.8348 306.382 64.8335 307.149 62.7211H307.258C308.025 64.9447 308.682 66.946 309.339 68.6137L314.484 82.2893L316.783 88.2931H323.243L309.995 54.6047Z" fill="white"/>
<path d="M193.723 88.4043H200.182L186.935 54.6047H181.351L168.213 88.4043H174.672L177.957 79.732H189.124L185.621 74.5065H179.928L181.023 71.5045C181.898 69.1697 182.993 66.1677 184.088 62.6099H184.198C185.402 66.1677 186.387 69.0585 187.263 71.5045L187.701 72.5051L190.438 79.6209L192.081 84.0682V84.1793L193.723 88.4043Z" fill="white"/>
</svg>
