<svg width="223" height="75" viewBox="0 0 223 75" fill="none" xmlns="http://www.w3.org/2000/svg">
<path d="M12.4449 19.8724H49.7782V68H41.6653V26.5415H19.8016C19.2057 40.1089 18.8619 47.3051 18.7703 48.1302C18.1286 56.564 16.6389 62.1788 14.3013 64.9748C12.4678 67.2208 9.83228 68.3438 6.39459 68.3438C4.7445 68.3438 3.09441 68.2521 1.44432 68.0688V61.5371C3.09441 61.6288 4.14863 61.6747 4.60699 61.6747C5.24869 61.6747 5.82164 61.583 6.32584 61.3996C6.87587 61.1705 7.35714 60.8038 7.76966 60.2996C8.18219 59.7954 8.54887 59.2683 8.86972 58.7182C9.23641 58.1224 9.53434 57.3432 9.76352 56.3806C10.0385 55.3722 10.2677 54.4097 10.4511 53.493C10.6802 52.5762 10.8636 51.4303 11.0011 50.0553C11.1386 48.6344 11.2532 47.328 11.3449 46.1363C11.4365 44.8987 11.5282 43.3862 11.6199 41.5986C11.7115 39.7651 11.7803 38.115 11.8261 36.6483C11.872 35.1815 11.9407 33.371 12.0324 31.2167C12.0782 29.6125 12.1012 28.3749 12.1012 27.504C12.147 26.5873 12.1928 25.3956 12.2387 23.9288C12.3303 22.4621 12.3991 21.1099 12.4449 19.8724ZM73.9484 31.148C79.632 31.148 83.9635 32.3626 86.9428 34.7919C89.9222 37.2212 91.4118 40.8194 91.4118 45.5863V68H84.1927V60.6433C81.1217 66.0978 75.8047 68.825 68.2418 68.825C63.7041 68.825 60.2893 67.8625 57.9975 65.9374C55.7057 64.0123 54.5598 61.4913 54.5598 58.3745C54.5598 54.9368 55.9578 52.3241 58.7538 50.5365C61.5498 48.749 65.7438 47.6489 71.3357 47.2364L83.6426 46.2051V44.0049C83.6426 41.8048 82.8176 40.0401 81.1675 38.7109C79.5633 37.3358 77.1569 36.6254 73.9484 36.5795C71.1524 36.5795 68.8606 37.1066 67.073 38.1609C65.2854 39.2151 64.2312 40.7506 63.9103 42.7674H56.6912C56.8287 40.7048 57.3787 38.9172 58.3413 37.4046C59.3038 35.8462 60.5872 34.6315 62.1915 33.7606C63.7957 32.8439 65.5604 32.1793 67.4855 31.7668C69.4565 31.3543 71.6107 31.148 73.9484 31.148ZM70.4419 63.3935C74.4755 63.3935 77.684 62.3851 80.0675 60.3683C82.4509 58.3516 83.6426 55.8077 83.6426 52.7367V50.9491L72.2983 51.8429C65.5604 52.3929 62.1915 54.4555 62.1915 58.0307C62.1915 59.635 62.879 60.9413 64.2541 61.9497C65.6292 62.9122 67.6918 63.3935 70.4419 63.3935ZM124.802 31.973V38.3671H103.97V68H96.2692V31.973H124.802ZM128.55 63.806C124.883 60.46 123.05 55.8535 123.05 49.9865C123.05 44.1195 124.883 39.513 128.55 36.167C132.217 32.821 137.144 31.148 143.332 31.148C149.52 31.148 154.424 32.821 158.045 36.167C161.712 39.513 163.546 44.1195 163.546 49.9865C163.546 55.8535 161.712 60.46 158.045 63.806C154.424 67.152 149.52 68.825 143.332 68.825C137.144 68.825 132.217 67.152 128.55 63.806ZM134.05 40.7048C131.804 43.0424 130.681 46.1363 130.681 49.9865C130.681 53.8367 131.804 56.9536 134.05 59.337C136.342 61.6747 139.436 62.8435 143.332 62.8435C147.182 62.8435 150.23 61.6747 152.476 59.337C154.768 56.9536 155.914 53.8367 155.914 49.9865C155.914 46.1363 154.768 43.0424 152.476 40.7048C150.23 38.3213 147.182 37.1296 143.332 37.1296C139.436 37.1296 136.342 38.3213 134.05 40.7048ZM205.413 31.973H218.201V68H210.707V36.8546L197.438 68H187.606L174.336 36.9233V68H166.911V31.973H179.837L192.625 63.8748L205.413 31.973Z" fill="white"/>
<path d="M76.7324 25.2718L79.5764 16.1643L83.7758 16.1643V19.4579L79.5609 25.2718H76.7324Z" fill="white"/>
</svg>
