<svg width="274" height="67" viewBox="0 0 274 67" fill="none" xmlns="http://www.w3.org/2000/svg">
<path d="M29.3898 47.8983L28.9749 47.8515C29.2745 45.5574 29.5742 39.635 25.6324 34.4148C23.3964 31.4419 20.6072 29.8266 18.6709 29.0073L18.8323 28.6094C20.8147 29.4521 23.673 31.1141 25.9782 34.1573C30.0122 39.4945 29.7125 45.534 29.3898 47.8983Z" fill="#464441"/>
<path d="M2.00547 66.9999H5.46318L14.5915 47.8983H29.3905V44.5508H11.0186L2.16683 62.5757L0 66.9999H2.00547Z" fill="#464441"/>
<path d="M62.791 67L60.6242 62.5757L31.395 3L18.832 28.586C19.9385 29.0541 21.2985 29.7798 22.7047 30.8566L31.372 12.7147L57.2817 67H61.0161H62.791Z" fill="#464441"/>
<path d="M106.082 40.3504C105.81 40.3504 105.539 40.3504 105.267 40.3504C104.996 40.3504 104.778 40.3504 104.507 40.2953V46.8594H101.465V30.0906H106.245C107.06 30.0906 107.766 30.1457 108.363 30.2009C108.961 30.256 109.504 30.3664 109.938 30.5319C111.079 30.8628 111.948 31.4696 112.546 32.1867C113.143 32.9589 113.469 33.9518 113.469 35.1102C113.469 35.9376 113.306 36.6547 112.98 37.3166C112.654 37.9785 112.165 38.5301 111.514 38.9714C110.862 39.4127 110.101 39.7988 109.178 40.0195C108.363 40.2401 107.277 40.3504 106.082 40.3504ZM104.561 37.7027C104.724 37.7027 104.941 37.7579 105.213 37.7579C105.484 37.7579 105.756 37.7579 106.028 37.7579C106.842 37.7579 107.548 37.7027 108.092 37.5372C108.635 37.4269 109.069 37.2063 109.45 36.9856C109.775 36.765 110.047 36.434 110.156 36.1031C110.319 35.7721 110.373 35.386 110.373 34.9999C110.373 34.5034 110.264 34.0621 110.047 33.7312C109.83 33.345 109.45 33.0692 108.906 32.9037C108.635 32.7934 108.255 32.7383 107.82 32.6831C107.385 32.6279 106.897 32.6279 106.245 32.6279H104.561V37.7027Z" fill="#464441"/>
<path d="M123.464 46.8594H120.422V32.6831H115.099V30.0906H128.787V32.6831H123.464V46.8594Z" fill="#464441"/>
<path d="M134.164 44.2668H142.312V46.8594H131.122V30.0906H141.823V32.6831H134.164V37.0408H140.736V39.6333H134.164V44.2668Z" fill="#464441"/>
<path d="M165.341 36.5995C166.047 36.5443 166.699 36.4892 167.351 36.4892C168.6 36.4892 169.686 36.5995 170.61 36.8201C172.076 37.1511 173.163 37.7027 173.869 38.5301C174.575 39.3575 174.955 40.2953 174.955 41.5088C174.955 42.5017 174.684 43.4394 174.141 44.2668C173.597 45.0942 172.783 45.701 171.642 46.1423C171.044 46.3629 170.338 46.5835 169.523 46.6939C168.709 46.8042 167.731 46.8594 166.59 46.8594H162.354V30.0906H165.395L165.341 36.5995ZM165.341 44.2668H166.753C167.296 44.2668 167.785 44.2668 168.22 44.2116C168.654 44.1565 169.089 44.1013 169.415 44.0462C170.121 43.8807 170.718 43.6049 171.153 43.1636C171.588 42.7223 171.805 42.2259 171.805 41.5088C171.805 40.9572 171.642 40.4607 171.316 40.1298C170.99 39.7436 170.447 39.4678 169.686 39.3024C169.361 39.192 168.98 39.1369 168.546 39.1369C168.111 39.0817 167.677 39.0817 167.188 39.0817C166.536 39.0817 165.884 39.1369 165.287 39.1921L165.341 44.2668Z" fill="#464441"/>
<path d="M195.869 30.0906V46.8594H193.859V32.0212H185.386V46.8594H183.376V30.0906H195.869Z" fill="#464441"/>
<path d="M202.116 46.8594H200.106V30.0906H204.669C205.375 30.0906 205.973 30.1457 206.57 30.2009C207.168 30.3112 207.657 30.4215 208.146 30.587C209.123 30.9731 209.884 31.4696 210.373 32.1867C210.861 32.9038 211.133 33.7863 211.133 34.8344C211.133 35.6618 210.97 36.434 210.644 37.0959C210.318 37.7579 209.829 38.3095 209.178 38.6956C208.526 39.1369 207.765 39.4679 206.896 39.6885C206.027 39.9091 204.941 40.0195 203.8 40.0195C203.257 40.0195 202.659 40.0195 202.062 39.9643L202.116 46.8594ZM202.116 38.0888C202.388 38.144 202.659 38.144 202.985 38.144C203.257 38.144 203.583 38.144 203.8 38.144C204.723 38.144 205.538 38.0888 206.244 37.9234C206.896 37.7579 207.439 37.5372 207.874 37.2614C208.308 36.9856 208.58 36.5995 208.797 36.2134C209.015 35.8273 209.069 35.3308 209.069 34.7792C209.069 34.1173 208.906 33.5657 208.634 33.1795C208.308 32.7383 207.874 32.4625 207.331 32.2418C206.951 32.1315 206.57 32.0212 206.136 31.966C205.701 31.9109 205.158 31.8557 204.506 31.8557H202.171L202.116 38.0888Z" fill="#464441"/>
<path d="M229.275 38.4751C229.275 39.7438 229.112 40.9022 228.732 41.9502C228.352 42.9983 227.863 43.936 227.211 44.7082C226.559 45.4805 225.744 46.0873 224.767 46.5285C223.843 46.9698 222.757 47.1905 221.616 47.1905C220.421 47.1905 219.335 46.9698 218.357 46.5285C217.379 46.0873 216.619 45.4805 215.913 44.7082C215.261 43.936 214.718 43.0534 214.392 41.9502C214.012 40.9022 213.849 39.7438 213.849 38.4751C213.849 37.2064 214.012 36.048 214.392 34.9448C214.772 33.8416 215.261 32.9591 215.913 32.1868C216.565 31.4146 217.379 30.8078 218.357 30.3665C219.335 29.9252 220.367 29.7046 221.562 29.7046C222.757 29.7046 223.843 29.9252 224.767 30.3665C225.744 30.8078 226.505 31.4146 227.211 32.1868C227.863 32.9591 228.406 33.8968 228.732 34.9448C229.058 35.9929 229.275 37.2064 229.275 38.4751ZM227.265 38.4751C227.265 37.3719 227.102 36.379 226.831 35.4964C226.559 34.6139 226.124 33.8968 225.636 33.3452C225.147 32.7936 224.549 32.3523 223.843 32.0213C223.137 31.7455 222.377 31.58 221.616 31.58C220.856 31.58 220.095 31.7455 219.389 32.0213C218.683 32.2971 218.085 32.7384 217.597 33.3452C217.108 33.9519 216.673 34.6139 216.402 35.4964C216.13 36.379 215.967 37.3719 215.967 38.4751C215.967 39.5783 216.13 40.5712 216.402 41.4538C216.673 42.2812 217.108 42.9983 217.597 43.605C218.085 44.1566 218.683 44.5979 219.389 44.9289C220.095 45.2047 220.856 45.3702 221.67 45.3702C222.485 45.3702 223.191 45.2047 223.897 44.9289C224.604 44.6531 225.201 44.2118 225.69 43.605C226.179 42.9983 226.613 42.3363 226.885 41.4538C227.157 40.5712 227.265 39.5783 227.265 38.4751Z" fill="#464441"/>
<path d="M234.978 44.9841H243.451V46.8044H232.968V30.0356H243.017V31.8559H234.978V37.2617H242.093V39.082H234.978V44.9841Z" fill="#464441"/>
<path d="M246.928 46.8594V30.0906H248.937V38.3646L256.542 30.0906H258.552L250.839 38.4198L258.986 46.8594H256.977L248.937 38.6404V46.8594H246.928Z" fill="#464441"/>
<path d="M268.112 46.8594H266.102V31.9109H260.562V30.0906H273.598V31.9109H268.057L268.112 46.8594Z" fill="#464441"/>
<path d="M136.771 26.5605L137.966 22.8096H140.248L138.51 26.5605H136.771Z" fill="#464441"/>
<path d="M153.664 30.0906H150.894L144.321 46.8594H147.526L148.504 44.2668L151.22 37.0408C151.546 36.1582 151.871 35.1653 152.252 34.1173H152.306C152.686 35.2205 153.012 36.2134 153.338 37.0408L155.891 43.8255L157.032 46.8042H160.236L153.664 30.0906Z" fill="#464441"/>
<path d="M95.9783 46.8594H99.1831L92.6106 30.0906H89.8404L83.3223 46.8594H86.527L88.1566 42.5568H93.697L91.9588 39.9643H89.1343L89.6775 38.475C90.112 37.3166 90.6552 35.8273 91.1984 34.0621H91.2527C91.8502 35.8273 92.339 37.2614 92.7736 38.475L92.9909 38.9714L94.3488 42.5017L95.1636 44.7081V44.7632L95.9783 46.8594Z" fill="#464441"/>
</svg>
