<svg width="151" height="45" viewBox="0 0 151 45" fill="none" xmlns="http://www.w3.org/2000/svg">
<path d="M8.80925 6.87112H34.0838V39.4534H28.5913V11.3861H13.7897C13.3863 20.5712 13.1536 25.443 13.0915 26.0016C12.6571 31.7112 11.6486 35.5125 10.066 37.4053C8.82477 38.9258 7.0405 39.6861 4.7132 39.6861C3.59609 39.6861 2.47899 39.624 1.36188 39.4999V35.078C2.47899 35.1401 3.1927 35.1711 3.503 35.1711C3.93743 35.1711 4.32532 35.1091 4.66665 34.9849C5.03902 34.8298 5.36485 34.5815 5.64412 34.2402C5.9234 33.8989 6.17164 33.542 6.38886 33.1696C6.6371 32.7663 6.8388 32.2387 6.99396 31.5871C7.18014 30.9044 7.3353 30.2528 7.45942 29.6321C7.61457 29.0115 7.73869 28.2358 7.83179 27.3048C7.92488 26.3429 8.00246 25.4585 8.06452 24.6517C8.12658 23.8139 8.18864 22.7899 8.2507 21.5797C8.31276 20.3384 8.35931 19.2213 8.39034 18.2284C8.42137 17.2354 8.46792 16.0097 8.52998 14.5512C8.56101 13.4651 8.57652 12.6273 8.57652 12.0377C8.60756 11.4171 8.63859 10.6103 8.66962 9.61734C8.73168 8.62435 8.77822 7.70895 8.80925 6.87112ZM50.4469 14.5047C54.2947 14.5047 57.2271 15.327 59.2441 16.9716C61.2611 18.6162 62.2696 21.0522 62.2696 24.2794V39.4534H57.3823V34.4729C55.3032 38.1656 51.7036 40.0119 46.5836 40.0119C43.5115 40.0119 41.1997 39.3603 39.6482 38.057C38.0967 36.7537 37.3209 35.047 37.3209 32.9369C37.3209 30.6096 38.2673 28.8409 40.1602 27.6307C42.0531 26.4205 44.8924 25.6757 48.6781 25.3965L57.0099 24.6983V23.2088C57.0099 21.7193 56.4513 20.5246 55.3342 19.6247C54.2482 18.6938 52.619 18.2128 50.4469 18.1818C48.554 18.1818 47.0025 18.5387 45.7923 19.2524C44.5821 19.9661 43.8684 21.0056 43.6512 22.371H38.7638C38.8569 20.9746 39.2293 19.7644 39.8809 18.7404C40.5326 17.6853 41.4014 16.863 42.4875 16.2734C43.5736 15.6528 44.7683 15.2029 46.0716 14.9236C47.4059 14.6443 48.8643 14.5047 50.4469 14.5047ZM48.073 36.3348C50.8038 36.3348 52.9759 35.6521 54.5895 34.2868C56.2031 32.9214 57.0099 31.1992 57.0099 29.1201V27.9099L49.3298 28.515C44.7683 28.8874 42.4875 30.2838 42.4875 32.7042C42.4875 33.7903 42.953 34.6746 43.8839 35.3573C44.8148 36.009 46.2112 36.3348 48.073 36.3348ZM84.8746 15.0632V19.392H70.7712V39.4534H65.558V15.0632H84.8746ZM87.4121 36.6141C84.9297 34.3488 83.6884 31.2302 83.6884 27.2583C83.6884 23.2864 84.9297 20.1678 87.4121 17.9025C89.8946 15.6373 93.2304 14.5047 97.4195 14.5047C101.609 14.5047 104.929 15.6373 107.38 17.9025C109.863 20.1678 111.104 23.2864 111.104 27.2583C111.104 31.2302 109.863 34.3488 107.38 36.6141C104.929 38.8793 101.609 40.0119 97.4195 40.0119C93.2304 40.0119 89.8946 38.8793 87.4121 36.6141ZM91.1358 20.9746C89.6153 22.5571 88.855 24.6517 88.855 27.2583C88.855 29.8649 89.6153 31.975 91.1358 33.5886C92.6873 35.1711 94.7819 35.9624 97.4195 35.9624C100.026 35.9624 102.09 35.1711 103.61 33.5886C105.162 31.975 105.937 29.8649 105.937 27.2583C105.937 24.6517 105.162 22.5571 103.61 20.9746C102.09 19.361 100.026 18.5542 97.4195 18.5542C94.7819 18.5542 92.6873 19.361 91.1358 20.9746ZM139.448 15.0632H148.106V39.4534H143.032V18.368L134.049 39.4534H127.393L118.409 18.4145V39.4534H113.382V15.0632H122.133L130.791 36.6606L139.448 15.0632Z" fill="#464441"/>
<path d="M49.9043 10.6695L52.0283 4.46509L55.1645 4.46509V6.70883L52.0167 10.6695H49.9043Z" fill="#464441"/>
</svg>
