<svg width="64" height="64" viewBox="0 0 64 64" fill="none" xmlns="http://www.w3.org/2000/svg">
<g id="Group">
<g id="Group_2">
<path id="Vector" d="M29.8898 44.8983L29.4749 44.8515C29.7745 42.5574 30.0742 36.6349 26.1324 31.4147C23.8964 28.4418 21.1072 26.8266 19.1709 26.0073L19.3323 25.6093C21.3147 26.452 24.173 28.1141 26.4782 31.1572C30.5122 36.4945 30.2125 42.534 29.8898 44.8983Z" fill="#464441"/>
</g>
<path id="Vector_2" d="M2.50547 64H5.96318L15.0915 44.8983H29.8905V41.5508H11.5186L2.66683 59.5757L0.5 64H2.50547Z" fill="#464441"/>
<g id="Group_3">
<path id="Vector_3" d="M63.291 63.9999L61.1242 59.5757L31.895 -6.10352e-05L19.332 25.5859C20.4385 26.0541 21.7985 26.7797 23.2047 27.8566L31.872 9.71464L57.7817 63.9999H61.5161H63.291Z" fill="#464441"/>
</g>
</g>
</svg>
