<svg width="11" height="12" viewBox="0 0 11 12" fill="none" xmlns="http://www.w3.org/2000/svg">
<path d="M1.91667 11.8332C1.59583 11.8332 1.32108 11.7188 1.09242 11.4902C0.863751 11.2615 0.749612 10.9869 0.750001 10.6665V3.08317C0.750001 2.91789 0.806001 2.77926 0.918001 2.66726C1.03 2.55526 1.16845 2.49945 1.33333 2.49984C1.49861 2.49984 1.63725 2.55584 1.74925 2.66784C1.86125 2.77984 1.91706 2.91828 1.91667 3.08317V10.6665H7.75C7.91528 10.6665 8.05392 10.7225 8.16592 10.8345C8.27792 10.9465 8.33372 11.085 8.33333 11.2498C8.33333 11.4151 8.27733 11.5538 8.16533 11.6658C8.05333 11.7778 7.91489 11.8336 7.75 11.8332H1.91667ZM4.25 9.49984C3.92917 9.49984 3.65442 9.38551 3.42575 9.15684C3.19708 8.92817 3.08295 8.65362 3.08333 8.33317V1.33317C3.08333 1.01234 3.19767 0.737588 3.42633 0.508922C3.655 0.280255 3.92956 0.166116 4.25 0.166505H9.5C9.82083 0.166505 10.0956 0.280838 10.3243 0.509505C10.5529 0.738172 10.6671 1.01273 10.6667 1.33317V8.33317C10.6667 8.65401 10.5523 8.92876 10.3237 9.15742C10.095 9.38609 9.82045 9.50023 9.5 9.49984H4.25Z" fill="white"/>
</svg>
