<svg width="26" height="16" viewBox="0 0 26 16" fill="none" xmlns="http://www.w3.org/2000/svg">
<path d="M15.9642 1.69434H9.16016V14.1473H15.9642V1.69434Z" fill="#FF5A00"/>
<path d="M9.61226 7.92087C9.61226 5.39081 10.7798 3.14528 12.5714 1.6944C11.2529 0.638284 9.58961 0 7.77536 0C3.47752 0 0 3.5426 0 7.92087C0 12.2991 3.47752 15.8417 7.77536 15.8417C9.58961 15.8417 11.2529 15.2035 12.5714 14.1473C10.7773 12.717 9.61226 10.4509 9.61226 7.92087Z" fill="#EB001B"/>
<path d="M25.1437 7.92087C25.1437 12.2991 21.6662 15.8417 17.3683 15.8417C15.5541 15.8417 13.8908 15.2035 12.5723 14.1473C14.3865 12.6939 15.5314 10.4509 15.5314 7.92087C15.5314 5.39081 14.3639 3.14528 12.5723 1.6944C13.8883 0.638284 15.5516 0 17.3658 0C21.6662 0 25.1437 3.56567 25.1437 7.92087Z" fill="#F79E1B"/>
</svg>
