<svg width="50" height="16" viewBox="0 0 50 16" fill="none" xmlns="http://www.w3.org/2000/svg">
<path fill-rule="evenodd" clip-rule="evenodd" d="M7.94382 1.73558C8.33691 1.73307 9.50515 1.62084 10 3.40228C10.3333 4.60228 10.8643 6.56794 11.5929 9.29925H11.8897C12.6711 6.41971 13.2078 4.45406 13.5 3.40228C14 1.60229 15.25 1.73562 15.75 1.73562L19.6076 1.73562V14.5356H15.6758V6.99236H15.4122L13.2204 14.5356H10.2622L8.07045 6.98677H7.80679V14.5356H3.875V1.73562L7.94382 1.73558ZM25.2536 1.73562V9.28447H25.5672L28.2333 3.07711C28.7509 1.84182 29.8539 1.73562 29.8539 1.73562H33.6587V14.5356H29.6448V6.98677H29.3312L26.7173 13.1941C26.1998 14.4238 25.0445 14.5356 25.0445 14.5356H21.2397V1.73562H25.2536ZM47.5326 7.81827C46.9727 9.51066 45.2144 10.7227 43.2677 10.7227H39.0583V14.5356H35.2413V7.81827H47.5326Z" fill="#0F754E"/>
<path fill-rule="evenodd" clip-rule="evenodd" d="M43.4516 1.7356H35.041C35.2412 4.58531 37.5419 7.02485 39.9236 7.02485H47.7976C48.252 4.6564 46.6878 1.7356 43.4516 1.7356Z" fill="url(#paint0_linear_112_1862)"/>
<defs>
<linearGradient id="paint0_linear_112_1862" x1="1318.42" y1="334.452" x2="35.041" y2="334.452" gradientUnits="userSpaceOnUse">
<stop stop-color="#1F5CD7"/>
<stop offset="1" stop-color="#02AEFF"/>
</linearGradient>
</defs>
</svg>
