<svg width="20" height="18" viewBox="0 0 20 18" fill="none" xmlns="http://www.w3.org/2000/svg">
<g clip-path="url(#clip0_151_1024)">
<path fill-rule="evenodd" clip-rule="evenodd" d="M16.9254 16.59V16.588L16.9434 16.545L19.9424 1.42498V1.37698C19.9424 0.999984 19.8024 0.670984 19.5004 0.473984C19.2354 0.300984 18.9304 0.288984 18.7164 0.304984C18.5172 0.323 18.3206 0.363251 18.1304 0.424984C18.0492 0.451139 17.9692 0.480496 17.8904 0.512984L17.8774 0.517984L1.15735 7.07698L1.15235 7.07898C1.10152 7.09634 1.05177 7.11671 1.00335 7.13998C0.884442 7.19341 0.770354 7.25698 0.662354 7.32998C0.447354 7.47798 0.0383537 7.82598 0.107354 8.37798C0.164354 8.83598 0.479354 9.12598 0.692354 9.27698C0.818078 9.36509 0.95325 9.43888 1.09535 9.49698L1.12735 9.51098L1.13735 9.51398L1.14435 9.51698L4.07035 10.502C4.06035 10.685 4.07835 10.872 4.12735 11.057L5.59235 16.616C5.67239 16.919 5.84532 17.1893 6.08688 17.389C6.32843 17.5887 6.62647 17.7077 6.93913 17.7294C7.25179 17.751 7.56338 17.6741 7.83012 17.5096C8.09686 17.3451 8.30537 17.1011 8.42635 16.812L10.7144 14.366L14.6434 17.378L14.6994 17.402C15.0564 17.558 15.3894 17.607 15.6944 17.566C15.9994 17.524 16.2414 17.396 16.4234 17.251C16.6339 17.0803 16.8016 16.8629 16.9134 16.616L16.9214 16.599L16.9244 16.593L16.9254 16.59ZM5.57735 10.675C5.56113 10.6133 5.56499 10.5481 5.58836 10.4887C5.61174 10.4294 5.65342 10.379 5.70735 10.345L15.6284 4.04498C15.6284 4.04498 16.2124 3.68998 16.1914 4.04498C16.1914 4.04498 16.2954 4.10698 15.9824 4.39798C15.6864 4.67498 8.91135 11.216 8.22535 11.878C8.18721 11.915 8.16049 11.9622 8.14835 12.014L7.04235 16.234L5.57735 10.674V10.675Z" fill="#0060FE"/>
</g>
<defs>
<clipPath id="clip0_151_1024">
<rect width="20" height="18" fill="white"/>
</clipPath>
</defs>
</svg>
