<svg width="24" height="24" viewBox="0 0 24 24" fill="none" xmlns="http://www.w3.org/2000/svg">
<path fill-rule="evenodd" clip-rule="evenodd" d="M18.9254 19.5902V19.5882L18.9434 19.5452L21.9424 4.42523V4.37723C21.9424 4.00023 21.8024 3.67123 21.5004 3.47423C21.2354 3.30123 20.9304 3.28923 20.7164 3.30523C20.5172 3.32324 20.3206 3.36349 20.1304 3.42523C20.0492 3.45138 19.9692 3.48074 19.8904 3.51323L19.8774 3.51823L3.15735 10.0772L3.15235 10.0792C3.10152 10.0966 3.05177 10.117 3.00335 10.1402C2.88444 10.1937 2.77035 10.2572 2.66235 10.3302C2.44735 10.4782 2.03835 10.8262 2.10735 11.3782C2.16435 11.8362 2.47935 12.1262 2.69235 12.2772C2.81808 12.3653 2.95325 12.4391 3.09535 12.4972L3.12735 12.5112L3.13735 12.5142L3.14435 12.5172L6.07035 13.5022C6.06035 13.6852 6.07835 13.8722 6.12735 14.0572L7.59235 19.6162C7.67239 19.9192 7.84532 20.1896 8.08688 20.3893C8.32843 20.589 8.62647 20.708 8.93913 20.7296C9.25179 20.7512 9.56338 20.6744 9.83012 20.5098C10.0969 20.3453 10.3054 20.1013 10.4264 19.8122L12.7144 17.3662L16.6434 20.3782L16.6994 20.4022C17.0564 20.5582 17.3894 20.6072 17.6944 20.5662C17.9994 20.5242 18.2414 20.3962 18.4234 20.2512C18.6339 20.0806 18.8016 19.8631 18.9134 19.6162L18.9214 19.5992L18.9244 19.5932L18.9254 19.5902ZM7.57735 13.6752C7.56113 13.6135 7.56499 13.5483 7.58836 13.489C7.61174 13.4296 7.65342 13.3793 7.70735 13.3452L17.6284 7.04523C17.6284 7.04523 18.2124 6.69023 18.1914 7.04523C18.1914 7.04523 18.2954 7.10723 17.9824 7.39823C17.6864 7.67523 10.9114 14.2162 10.2254 14.8782C10.1872 14.9153 10.1605 14.9625 10.1484 15.0142L9.04236 19.2342L7.57735 13.6742V13.6752Z" fill="white" fill-opacity="0.6"/>
</svg>
