<svg width="50" height="16" viewBox="0 0 50 16" fill="none" xmlns="http://www.w3.org/2000/svg">
<path d="M22.099 14.4042H18.8047L20.8652 1.63672H24.1593L22.099 14.4042Z" fill="#00579F"/>
<path d="M34.0401 1.94884C33.3904 1.6905 32.3598 1.40527 31.0854 1.40527C27.8322 1.40527 25.5413 3.14373 25.5273 5.62921C25.5003 7.46298 27.1675 8.48151 28.4144 9.09295C29.689 9.71774 30.1222 10.1256 30.1222 10.6825C30.1092 11.5378 29.0923 11.9321 28.1439 11.9321C26.8286 11.9321 26.1239 11.7288 25.053 11.2529L24.6192 11.0489L24.1582 13.915C24.9308 14.2677 26.3543 14.5807 27.8322 14.5945C31.2888 14.5945 33.5392 12.8829 33.5658 10.2342C33.579 8.78082 32.6986 7.66716 30.8006 6.75713C29.6484 6.17295 28.9428 5.77904 28.9428 5.18132C28.9563 4.63794 29.5396 4.08138 30.8403 4.08138C31.9112 4.05412 32.6981 4.31209 33.2942 4.57024L33.5921 4.70582L34.0401 1.94884Z" fill="#00579F"/>
<path d="M38.4191 9.88113C38.6904 9.14766 39.7343 6.3089 39.7343 6.3089C39.7206 6.33615 40.005 5.56188 40.1677 5.08656L40.3979 6.18668C40.3979 6.18668 41.0218 9.24279 41.1572 9.88113C40.6424 9.88113 39.0697 9.88113 38.4191 9.88113ZM42.4854 1.63672H39.9373C39.1515 1.63672 38.5545 1.86743 38.2155 2.69604L33.3223 14.404H36.7789C36.7789 14.404 37.3479 12.8282 37.4702 12.4888C37.8494 12.4888 41.212 12.4888 41.6998 12.4888C41.7944 12.9371 42.0929 14.404 42.0929 14.404H45.1431L42.4854 1.63672Z" fill="#00579F"/>
<path d="M16.0532 1.63672L12.827 10.3429L12.4745 8.5772C11.878 6.53979 10.0074 4.32619 7.91992 3.22552L10.875 14.3907H14.3586L19.5366 1.63672H16.0532Z" fill="#00579F"/>
<path d="M9.83097 1.63672H4.53079L4.47656 1.89469C8.61103 2.95419 11.3492 5.50808 12.4742 8.57774L11.322 2.70994C11.1323 1.89451 10.5494 1.66362 9.83097 1.63672Z" fill="#FAA61A"/>
</svg>
